<svg xmlns="http://www.w3.org/2000/svg" xmlns:xlink="http://www.w3.org/1999/xlink" width="110" height="110" viewBox="0 0 110 110">
  <defs>
    <filter id="Path_982547" x="0" y="0" width="110" height="110" filterUnits="userSpaceOnUse">
      <feOffset dy="3" input="SourceAlpha"/>
      <feGaussianBlur stdDeviation="3" result="blur"/>
      <feFlood flood-opacity="0.161"/>
      <feComposite operator="in" in2="blur"/>
      <feComposite in="SourceGraphic"/>
    </filter>
  </defs>
  <g id="Group_1157555" data-name="Group 1157555" transform="translate(-7526.805 -2276.762)">
    <g id="Group_1157479" data-name="Group 1157479" transform="translate(6410.805 -1017.238)">
      <g id="Group_1155734" data-name="Group 1155734" transform="translate(0 -1390)">
        <g id="Group_1154704" data-name="Group 1154704" transform="translate(0 1466)">
          <g id="Group_1150790" data-name="Group 1150790" transform="translate(3 2320)">
            <g id="Group_1154214" data-name="Group 1154214" transform="translate(79 -5809)">
              <g id="Group_1152583" data-name="Group 1152583" transform="translate(1043 6713)">
                <g id="Group_1146973" data-name="Group 1146973" transform="translate(0 0)">
                  <g id="Group_1146954" data-name="Group 1146954">
                    <g transform="matrix(1, 0, 0, 1, -9, -6)" filter="url(#Path_982547)">
                      <g id="Path_982547-2" data-name="Path 982547" transform="translate(9 6)" fill="#fcf3f0">
                        <path d="M 46 90.49987030029297 C 39.99187850952148 90.49987030029297 34.16426849365234 89.32350921630859 28.67905426025391 87.00345611572266 C 23.38019943237305 84.76224517822266 18.62104034423828 81.55341339111328 14.53374671936035 77.46613311767578 C 10.44646644592285 73.37885284423828 7.237639904022217 68.61969757080078 4.996413230895996 63.32085418701172 C 2.676359891891479 57.83565521240234 1.5 52.008056640625 1.5 45.99993515014648 C 1.5 39.99181365966797 2.676359891891479 34.16421508789062 4.996413230895996 28.67901420593262 C 7.237639904022217 23.38017463684082 10.44646644592285 18.62101554870605 14.53374671936035 14.53373527526855 C 18.62104034423828 10.44645500183105 23.38019943237305 7.23762845993042 28.67905426025391 4.996415138244629 C 34.16426849365234 2.676361799240112 39.99187850952148 1.500001788139343 46 1.500001788139343 C 52.00812149047852 1.500001788139343 57.83573150634766 2.676361799240112 63.32094573974609 4.996415138244629 C 68.61979675292969 7.23762845993042 73.37895965576172 10.44645500183105 77.46625518798828 14.53373527526855 C 81.55353546142578 18.62101554870605 84.76235961914062 23.38017463684082 87.00358581542969 28.67901420593262 C 89.32363891601562 34.16421508789062 90.5 39.99181365966797 90.5 45.99993515014648 C 90.5 52.008056640625 89.32363891601562 57.83565521240234 87.00358581542969 63.32085418701172 C 84.76235961914062 68.61969757080078 81.55353546142578 73.37885284423828 77.46625518798828 77.46613311767578 C 73.37895965576172 81.55341339111328 68.61979675292969 84.76224517822266 63.32094573974609 87.00345611572266 C 57.83573150634766 89.32350921630859 52.00812149047852 90.49987030029297 46 90.49987030029297 Z" stroke="none"/>
                        <path d="M 46 2.999992370605469 C 40.1937141418457 2.999992370605469 34.56269836425781 4.136489868164062 29.26337051391602 6.377906799316406 C 24.14332580566406 8.543502807617188 19.54441070556641 11.64437866210938 15.59439849853516 15.59437561035156 C 11.64440155029297 19.54439544677734 8.54351806640625 24.14329528808594 6.377914428710938 29.26333618164062 C 4.136497497558594 34.56264877319336 3 40.19366455078125 3 45.99993515014648 C 3 51.80620574951172 4.136497497558594 57.43720626831055 6.377914428710938 62.73651885986328 C 8.54351806640625 67.8565673828125 11.64440155029297 72.45545959472656 15.59439849853516 76.40547943115234 C 19.54441070556641 80.35547637939453 24.14332580566406 83.45635223388672 29.26337051391602 85.6219482421875 C 34.56269836425781 87.86336517333984 40.1937141418457 88.99986267089844 46 88.99986267089844 C 51.8062858581543 88.99986267089844 57.43730163574219 87.86336517333984 62.73661422729492 85.6219482421875 C 67.85667419433594 83.45635223388672 72.45557403564453 80.35547637939453 76.40558624267578 76.40547943115234 C 80.35559844970703 72.45545959472656 83.45647430419922 67.8565673828125 85.6220703125 62.73651885986328 C 87.86350250244141 57.43720626831055 89 51.80620574951172 89 45.99993515014648 C 89 40.19366455078125 87.86350250244141 34.56264877319336 85.6220703125 29.26333618164062 C 83.45647430419922 24.14329528808594 80.35559844970703 19.54439544677734 76.40558624267578 15.59437561035156 C 72.45557403564453 11.64437866210938 67.85667419433594 8.543502807617188 62.73661422729492 6.377906799316406 C 57.43730163574219 4.136489868164062 51.8062858581543 2.999992370605469 46 2.999992370605469 M 46 -7.62939453125e-06 C 71.40509033203125 -7.62939453125e-06 92 20.59486389160156 92 45.99993515014648 C 92 71.40499114990234 71.40509033203125 91.99986267089844 46 91.99986267089844 C 20.59490203857422 91.99986267089844 0 71.40499114990234 0 45.99993515014648 C 0 20.59486389160156 20.59490203857422 -7.62939453125e-06 46 -7.62939453125e-06 Z" stroke="none" fill="#e89076"/>
                      </g>
                    </g>
                  </g>
                </g>
              </g>
            </g>
          </g>
        </g>
      </g>
      <g id="Layer_x0020_1" transform="translate(1138.146 3311.73)">
        <path id="Path_981318" data-name="Path 981318" d="M35.632,33.249c-.823,0-.9-1.362-2.777-1.362-1.908,0-1.956,1.413-2.819,1.361a.769.769,0,0,1-.614-.368l-5.246-8.593a.77.77,0,0,1,.193-1.015c4.385-3.309,12.587-3.31,16.973,0a.769.769,0,0,1,.193,1.015L36.288,32.88a.773.773,0,0,1-.656.369ZM56.19,55.659H9.486A5.678,5.678,0,0,1,4.61,47.17c4.269-7.393,7.716-13.93,12.243-21.834.687-1.2,11.188-19.583,13.309-20.73,1.629-.882,4.376-.872,5.5.078,4.085,3.45,21,34.805,25.437,42.487a5.652,5.652,0,0,1-4.911,8.489ZM30.971,5.92c-3.994,3.6-20.588,34.331-25.027,42.02a4.138,4.138,0,0,0,3.542,6.179h46.7a4.111,4.111,0,0,0,3.577-6.178c-4.282-7.411-7.708-13.9-12.256-21.834C46.924,25.081,36.708,7.3,34.721,5.9a4.458,4.458,0,0,0-3.749.016ZM56.19,59.508H9.487A9.522,9.522,0,0,1,1.278,45.246c.735-1.273,1.979-3.515,3.553-6.353C14.342,21.751,24.768,3.3,28.1,1.349a9.541,9.541,0,0,1,9.564.034C41,3.365,51.4,21.776,60.875,38.876c1.579,2.849,2.827,5.1,3.56,6.37A9.541,9.541,0,0,1,56.19,59.508ZM32.922,1.624a8.116,8.116,0,0,0-4.042,1.055C24.913,5,8.859,35.193,2.611,46.016A7.983,7.983,0,0,0,9.488,57.968h46.7A7.966,7.966,0,0,0,63.1,46.016C56.817,35.132,40.943,5.2,36.863,2.7a7.447,7.447,0,0,0-3.941-1.074ZM25.662,51.009a.77.77,0,0,1-.3-.061c-5.034-2.131-9.158-9.274-8.486-14.7a.77.77,0,0,1,.783-.675l10.065.246a.771.771,0,0,1,.694,1.06,2.749,2.749,0,0,0,2.168,3.756.77.77,0,0,1,.571,1.131l-4.819,8.84a.77.77,0,0,1-.676.4ZM18.35,37.132c-.164,4.427,3.07,10.028,6.985,12.1l4-7.345a4.29,4.29,0,0,1-2.627-4.55l-8.363-.2Zm21.7,13.878a.771.771,0,0,1-.677-.4l-4.82-8.84a.77.77,0,0,1,.571-1.131,2.749,2.749,0,0,0,2.169-3.756.772.772,0,0,1,.694-1.06l10.084-.247a.769.769,0,0,1,.763.676c.672,5.425-3.452,12.568-8.486,14.7a.765.765,0,0,1-.3.061Zm-3.678-9.123,4,7.345c3.916-2.072,7.149-7.673,6.986-12.1l-8.363.2a4.289,4.289,0,0,1-2.626,4.551Zm-3.516-1.625c-4.526,0-4.526-6.878,0-6.878S37.383,40.261,32.856,40.261Zm0-5.337a1.9,1.9,0,0,0,0,3.8A1.9,1.9,0,0,0,32.856,34.924Zm0-4.578a4.251,4.251,0,0,1,2.627.9l4.358-7.14c-3.769-2.371-10.2-2.371-13.971,0l4.358,7.14a4.25,4.25,0,0,1,2.627-.9Z" transform="translate(0 0)" fill="#000002" fill-rule="evenodd"/>
        <g id="Group_1145756" data-name="Group 1145756" transform="translate(18.344 22.328)">
          <path id="Path_981319" data-name="Path 981319" d="M7.657,8.678a4.251,4.251,0,0,1,2.627.9l4.358-7.14C10.874.067,4.441.067.672,2.437L5.03,9.577a4.25,4.25,0,0,1,2.627-.9Z" transform="translate(6.854 -0.659)" fill="#57555c" fill-rule="evenodd"/>
          <path id="Path_981320" data-name="Path 981320" d="M2.679.987a1.9,1.9,0,0,0,0,3.8A1.9,1.9,0,0,0,2.679.987Z" transform="translate(11.832 11.61)" fill="#57555c" fill-rule="evenodd"/>
          <path id="Path_981321" data-name="Path 981321" d="M3.571,1.249A4.289,4.289,0,0,1,.945,5.8l4,7.345c3.916-2.072,7.149-7.673,6.986-12.1l-8.363.2Z" transform="translate(17.083 13.759)" fill="#57555c" fill-rule="evenodd"/>
          <path id="Path_981322" data-name="Path 981322" d="M11.472,5.8a4.29,4.29,0,0,1-2.627-4.55l-8.363-.2c-.164,4.427,3.07,10.028,6.985,12.1l4-7.345Z" transform="translate(-0.477 13.76)" fill="#57555c" fill-rule="evenodd"/>
        </g>
        <path id="Path_981323" data-name="Path 981323" d="M12.4,30.3l10.065.246a.771.771,0,0,1,.694,1.06,2.749,2.749,0,0,0,2.168,3.756.77.77,0,0,1,.571,1.131l-4.819,8.84a.769.769,0,0,1-.976.341c-5.034-2.131-9.158-9.274-8.486-14.7A.77.77,0,0,1,12.4,30.3Zm11.763-2.7L18.917,19.01a.77.77,0,0,1,.193-1.015c4.385-3.309,12.587-3.31,16.973,0a.769.769,0,0,1,.193,1.015L31.03,27.6a.773.773,0,0,1-.656.369c-.823,0-.9-1.362-2.777-1.362-1.908,0-1.956,1.413-2.819,1.361A.769.769,0,0,1,24.164,27.6ZM27.6,34.985c-4.526,0-4.526-6.878,0-6.878S32.125,34.985,27.6,34.985ZM4.229,48.842h46.7a4.111,4.111,0,0,0,3.577-6.178c-4.282-7.411-7.708-13.9-12.256-21.834C41.666,19.8,31.45,2.025,29.463.628a4.458,4.458,0,0,0-3.749.016C21.719,4.241,5.125,34.974.687,42.663a4.138,4.138,0,0,0,3.542,6.179Zm29.886-3.511-4.82-8.84a.77.77,0,0,1,.571-1.131A2.749,2.749,0,0,0,32.035,31.6a.772.772,0,0,1,.694-1.06L42.813,30.3a.769.769,0,0,1,.763.676c.672,5.425-3.452,12.568-8.486,14.7a.769.769,0,0,1-.976-.34Z" transform="translate(5.258 5.277)" fill="#fedb41" fill-rule="evenodd"/>
        <path id="Path_981324" data-name="Path 981324" d="M34.161,3.182c4.085,3.45,21,34.805,25.437,42.487a5.652,5.652,0,0,1-4.911,8.489H7.984a5.678,5.678,0,0,1-4.876-8.489c4.269-7.393,7.716-13.93,12.243-21.834.687-1.2,11.188-19.583,13.309-20.73,1.629-.882,4.376-.872,5.5.078ZM7.986,56.467h46.7A7.966,7.966,0,0,0,61.6,44.514C55.314,33.63,39.441,3.694,35.36,1.2A7.447,7.447,0,0,0,31.42.122a8.116,8.116,0,0,0-4.042,1.055C23.411,3.5,7.356,33.69,1.109,44.513A7.983,7.983,0,0,0,7.986,56.466Z" transform="translate(1.502 1.502)" fill="#57555c" fill-rule="evenodd"/>
      </g>
    </g>
  </g>
</svg>
