<svg xmlns="http://www.w3.org/2000/svg" xmlns:xlink="http://www.w3.org/1999/xlink" width="110" height="110" viewBox="0 0 110 110">
  <defs>
    <filter id="Path_982547" x="0" y="0" width="110" height="110" filterUnits="userSpaceOnUse">
      <feOffset dy="3" input="SourceAlpha"/>
      <feGaussianBlur stdDeviation="3" result="blur"/>
      <feFlood flood-opacity="0.161"/>
      <feComposite operator="in" in2="blur"/>
      <feComposite in="SourceGraphic"/>
    </filter>
  </defs>
  <g id="Group_1157556" data-name="Group 1157556" transform="translate(-7854.805 -2276.762)">
    <g id="Group_1157480" data-name="Group 1157480" transform="translate(6738.805 -1017.238)">
      <g id="Group_1155734" data-name="Group 1155734" transform="translate(0 -1390)">
        <g id="Group_1154704" data-name="Group 1154704" transform="translate(0 1466)">
          <g id="Group_1150790" data-name="Group 1150790" transform="translate(3 2320)">
            <g id="Group_1154214" data-name="Group 1154214" transform="translate(79 -5809)">
              <g id="Group_1152583" data-name="Group 1152583" transform="translate(1043 6713)">
                <g id="Group_1146973" data-name="Group 1146973" transform="translate(0 0)">
                  <g id="Group_1146954" data-name="Group 1146954">
                    <g transform="matrix(1, 0, 0, 1, -9, -6)" filter="url(#Path_982547)">
                      <g id="Path_982547-2" data-name="Path 982547" transform="translate(9 6)" fill="#fcf3f0">
                        <path d="M 46 90.49987030029297 C 39.99187850952148 90.49987030029297 34.16426849365234 89.32350921630859 28.67905426025391 87.00345611572266 C 23.38019943237305 84.76224517822266 18.62104034423828 81.55341339111328 14.53374671936035 77.46613311767578 C 10.44646644592285 73.37885284423828 7.237639904022217 68.61969757080078 4.996413230895996 63.32085418701172 C 2.676359891891479 57.83565521240234 1.5 52.008056640625 1.5 45.99993515014648 C 1.5 39.99181365966797 2.676359891891479 34.16421508789062 4.996413230895996 28.67901420593262 C 7.237639904022217 23.38017463684082 10.44646644592285 18.62101554870605 14.53374671936035 14.53373527526855 C 18.62104034423828 10.44645500183105 23.38019943237305 7.23762845993042 28.67905426025391 4.996415138244629 C 34.16426849365234 2.676361799240112 39.99187850952148 1.500001788139343 46 1.500001788139343 C 52.00812149047852 1.500001788139343 57.83573150634766 2.676361799240112 63.32094573974609 4.996415138244629 C 68.61979675292969 7.23762845993042 73.37895965576172 10.44645500183105 77.46625518798828 14.53373527526855 C 81.55353546142578 18.62101554870605 84.76235961914062 23.38017463684082 87.00358581542969 28.67901420593262 C 89.32363891601562 34.16421508789062 90.5 39.99181365966797 90.5 45.99993515014648 C 90.5 52.008056640625 89.32363891601562 57.83565521240234 87.00358581542969 63.32085418701172 C 84.76235961914062 68.61969757080078 81.55353546142578 73.37885284423828 77.46625518798828 77.46613311767578 C 73.37895965576172 81.55341339111328 68.61979675292969 84.76224517822266 63.32094573974609 87.00345611572266 C 57.83573150634766 89.32350921630859 52.00812149047852 90.49987030029297 46 90.49987030029297 Z" stroke="none"/>
                        <path d="M 46 2.999992370605469 C 40.1937141418457 2.999992370605469 34.56269836425781 4.136489868164062 29.26337051391602 6.377906799316406 C 24.14332580566406 8.543502807617188 19.54441070556641 11.64437866210938 15.59439849853516 15.59437561035156 C 11.64440155029297 19.54439544677734 8.54351806640625 24.14329528808594 6.377914428710938 29.26333618164062 C 4.136497497558594 34.56264877319336 3 40.19366455078125 3 45.99993515014648 C 3 51.80620574951172 4.136497497558594 57.43720626831055 6.377914428710938 62.73651885986328 C 8.54351806640625 67.8565673828125 11.64440155029297 72.45545959472656 15.59439849853516 76.40547943115234 C 19.54441070556641 80.35547637939453 24.14332580566406 83.45635223388672 29.26337051391602 85.6219482421875 C 34.56269836425781 87.86336517333984 40.1937141418457 88.99986267089844 46 88.99986267089844 C 51.8062858581543 88.99986267089844 57.43730163574219 87.86336517333984 62.73661422729492 85.6219482421875 C 67.85667419433594 83.45635223388672 72.45557403564453 80.35547637939453 76.40558624267578 76.40547943115234 C 80.35559844970703 72.45545959472656 83.45647430419922 67.8565673828125 85.6220703125 62.73651885986328 C 87.86350250244141 57.43720626831055 89 51.80620574951172 89 45.99993515014648 C 89 40.19366455078125 87.86350250244141 34.56264877319336 85.6220703125 29.26333618164062 C 83.45647430419922 24.14329528808594 80.35559844970703 19.54439544677734 76.40558624267578 15.59437561035156 C 72.45557403564453 11.64437866210938 67.85667419433594 8.543502807617188 62.73661422729492 6.377906799316406 C 57.43730163574219 4.136489868164062 51.8062858581543 2.999992370605469 46 2.999992370605469 M 46 -7.62939453125e-06 C 71.40509033203125 -7.62939453125e-06 92 20.59486389160156 92 45.99993515014648 C 92 71.40499114990234 71.40509033203125 91.99986267089844 46 91.99986267089844 C 20.59490203857422 91.99986267089844 0 71.40499114990234 0 45.99993515014648 C 0 20.59486389160156 20.59490203857422 -7.62939453125e-06 46 -7.62939453125e-06 Z" stroke="none" fill="#e89076"/>
                      </g>
                    </g>
                  </g>
                </g>
              </g>
            </g>
          </g>
        </g>
      </g>
      <g id="couple_5438927" transform="translate(1148.674 3318.315)">
        <g id="Group_1143033" data-name="Group 1143033" transform="translate(0.893 0.893)">
          <g id="Group_1143021" data-name="Group 1143021" transform="translate(33.936 22.326)">
            <path id="Path_903533" data-name="Path 903533" d="M47.931,26V39.655a25.4,25.4,0,0,1-2.224,10.4A15.292,15.292,0,0,0,39,40.8V35.824a7.831,7.831,0,0,0,5.349-7.144h.9A2.683,2.683,0,0,0,47.931,26Z" transform="translate(-39 -26)" fill="#fcd770"/>
          </g>
          <g id="Group_1143022" data-name="Group 1143022" transform="translate(23.523 6.251)">
            <path id="Path_903534" data-name="Path 903534" d="M46.684,20.5v3.572A2.676,2.676,0,0,0,44,21.4h-.893V19.61a.9.9,0,0,0-.893-.893H33.654a.9.9,0,0,1-.625-.259,5.2,5.2,0,0,0-3.679-1.527h-.527a2.656,2.656,0,0,0-1.482-2.393l.643-1.286A7.939,7.939,0,0,0,28.822,9.7c0-.161-.009-.321-.018-.482A12.5,12.5,0,0,1,46.684,20.5Z" transform="translate(-27.34 -8)" fill="#fcd770"/>
          </g>
          <g id="Group_1143023" data-name="Group 1143023">
            <path id="Path_903535" data-name="Path 903535" d="M21.54,10.824H18.557a6.539,6.539,0,0,1-5.233-2.617,2.394,2.394,0,0,0-4.054.366l-.232.464A5.007,5.007,0,0,0,4.876,11.27l-.3.447V13.5H3.679a2.686,2.686,0,0,0-1.2.286L1.839,12.5A7.938,7.938,0,0,1,8.948,1h9.109a7.932,7.932,0,0,1,7.93,7.466c.009.161.018.321.018.482a7.939,7.939,0,0,1-.839,3.554l-.643,1.286a2.686,2.686,0,0,0-1.2-.286h-.893V11.717A.9.9,0,0,0,21.54,10.824Z" transform="translate(-1 -1)" fill="#656d78"/>
          </g>
          <g id="Group_1143024" data-name="Group 1143024" transform="translate(1.786 27.685)">
            <path id="Path_903536" data-name="Path 903536" d="M15.5,48.968V57.9H3V47.209A15.232,15.232,0,0,1,17.289,32a7.839,7.839,0,0,1,5.358,7.43v9.538Z" transform="translate(-3 -32)" fill="#75b1f2"/>
          </g>
          <g id="Group_1143025" data-name="Group 1143025" transform="translate(21.433 48.225)">
            <path id="Path_903537" data-name="Path 903537" d="M25,55h7.144v5.358H25Z" transform="translate(-25 -55)" fill="#f0d0b4"/>
          </g>
          <g id="Group_1143026" data-name="Group 1143026" transform="translate(21.433 34.829)">
            <path id="Path_903538" data-name="Path 903538" d="M32.144,53.4H25V47.43A7.839,7.839,0,0,1,30.358,40,15.121,15.121,0,0,1,37.5,42.3a15.292,15.292,0,0,1,6.707,9.252,15.452,15.452,0,0,1,.438,3.662v3.545h-12.5Z" transform="translate(-25 -40)" fill="#ff826e"/>
          </g>
          <g id="Group_1143027" data-name="Group 1143027" transform="translate(14.289 44.653)">
            <path id="Path_903539" data-name="Path 903539" d="M24.144,54.572v5.358H17V51h7.144Z" transform="translate(-17 -51)" fill="#f0d0b4"/>
          </g>
          <g id="Group_1143028" data-name="Group 1143028" transform="translate(39.286 19.647)">
            <path id="Path_903540" data-name="Path 903540" d="M45.892,23a2.679,2.679,0,0,1,0,5.358h-.9c.009-.1.009-.188.009-.286V23Z" transform="translate(-44.99 -23)" fill="#f0d0b4"/>
          </g>
          <g id="Group_1143029" data-name="Group 1143029" transform="translate(21.433 15.182)">
            <path id="Path_903541" data-name="Path 903541" d="M25,27.538V20.679h.893A2.683,2.683,0,0,0,28.572,18H29.1a5.2,5.2,0,0,1,3.679,1.527.9.9,0,0,0,.625.259h8.564a.9.9,0,0,1,.893.893v6.859c0,.1,0,.188-.009.286A7.831,7.831,0,0,1,37.5,34.968v4.974a15.121,15.121,0,0,0-7.144-2.3V34.968A7.837,7.837,0,0,1,25,27.538Z" transform="translate(-25 -18)" fill="#f0d0b4"/>
          </g>
          <g id="Group_1143030" data-name="Group 1143030" transform="translate(21.424 12.503)">
            <path id="Path_903542" data-name="Path 903542" d="M25,20.073V15h.893a2.686,2.686,0,0,1,1.2.286,2.678,2.678,0,0,1-1.2,5.073h-.9c.009-.1.009-.188.009-.286Z" transform="translate(-24.99 -15)" fill="#f0d0b4"/>
          </g>
          <g id="Group_1143031" data-name="Group 1143031" transform="translate(3.572 6.251)">
            <path id="Path_903543" data-name="Path 903543" d="M22.861,14.251v5.073c0,.1,0,.188-.009.286A7.831,7.831,0,0,1,17.5,26.754v2.679a15.121,15.121,0,0,0-7.144,2.3V26.754A7.831,7.831,0,0,1,5.009,19.61C5,19.511,5,19.422,5,19.324V12.465l.3-.447A5.007,5.007,0,0,1,9.465,9.786L9.7,9.322a2.394,2.394,0,0,1,4.054-.366,6.539,6.539,0,0,0,5.233,2.617h2.983a.9.9,0,0,1,.893.893Z" transform="translate(-5 -8)" fill="#f0d0b4"/>
          </g>
          <g id="Group_1143032" data-name="Group 1143032" transform="translate(0 12.503)">
            <path id="Path_903544" data-name="Path 903544" d="M4.572,15v5.073c0,.1,0,.188.009.286h-.9a2.679,2.679,0,0,1,0-5.358Z" transform="translate(-1 -15)" fill="#f0d0b4"/>
          </g>
        </g>
        <g id="Group_1143034" data-name="Group 1143034" transform="translate(0)">
          <path id="Path_903549" data-name="Path 903549" d="M21.917,9.513h1.246V7.727H21.917a5.111,5.111,0,0,1-4.263-2.282l-1.486.99A6.893,6.893,0,0,0,21.917,9.513Z" transform="translate(-1.729 -0.582)"/>
          <path id="Path_903554" data-name="Path 903554" d="M31.257,6.251a13.294,13.294,0,0,0-4.64.839A8.855,8.855,0,0,0,17.951,0H8.84A8.84,8.84,0,0,0,.933,12.794l.3.6a3.557,3.557,0,0,0,2.338,6.251h.088a8.71,8.71,0,0,0,5.27,6.869v3.9A16.133,16.133,0,0,0,1.786,43.787V55.37H42.867V50.932a16.035,16.035,0,0,0-.412-3.553,26.09,26.09,0,0,0,2.2-10.5V19.647A13.411,13.411,0,0,0,31.257,6.251Zm11.61,13.4v.5a3.535,3.535,0,0,0-1.786-.5v-.893a1.788,1.788,0,0,0-1.786-1.786H37.4a3.752,3.752,0,0,0-1.978-2.491l-.188-.094-.8,1.6.188.094a1.973,1.973,0,0,1,.877.893H33.824a3.752,3.752,0,0,0-1.978-2.491l-.188-.094-.8,1.6.188.094a1.973,1.973,0,0,1,.877.893h-1.19a6.053,6.053,0,0,0-4.065-1.775,3.558,3.558,0,0,0-1.111-1.8l.3-.6a8.878,8.878,0,0,0,.927-3.846,11.489,11.489,0,0,1,4.472-.911,11.623,11.623,0,0,1,11.61,11.61Zm-1.786,1.786a1.786,1.786,0,0,1,0,3.572ZM33.936,32.4v4.113a16.008,16.008,0,0,0-5.358-1.588V32.4l-.611-.2a6.935,6.935,0,0,1-4.747-6.586V19.647a3.567,3.567,0,0,0,3.438-2.656,4.275,4.275,0,0,1,2.813,1.24,1.8,1.8,0,0,0,1.263.523h8.561v6.855A6.936,6.936,0,0,1,34.547,32.2Zm-12.5,14.04v7.144H16.075V46.439Zm1.786,3.572h5.358v3.572H23.219Zm0-35.722a1.786,1.786,0,1,1,0,3.572Zm3.572,19.372V35.1A8.684,8.684,0,0,0,23.219,37.9V36.012a8.719,8.719,0,0,0-5.358-8.053V26.517a8.684,8.684,0,0,0,3.572-2.794v1.886A8.717,8.717,0,0,0,26.792,33.661ZM2.531,12A7.054,7.054,0,0,1,8.84,1.786h9.11a7.054,7.054,0,0,1,6.31,10.209l-.295.589a3.607,3.607,0,0,0-.747-.08V11.61a1.788,1.788,0,0,0-1.786-1.786H18.449a5.669,5.669,0,0,1-4.514-2.256,3.288,3.288,0,0,0-5.57.5A5.885,5.885,0,0,0,5.359,9.24a2.147,2.147,0,0,1,.63-1.465L4.727,6.513A3.915,3.915,0,0,0,3.572,9.3v3.2a3.548,3.548,0,0,0-.747.081Zm-.745,4.079a1.788,1.788,0,0,1,1.786-1.786v3.572a1.788,1.788,0,0,1-1.786-1.786Zm8.32,8.977a6.937,6.937,0,0,1-4.747-6.587V11.88l.15-.225A4.106,4.106,0,0,1,8.931,9.824h.551l.479-.955A1.494,1.494,0,0,1,11.3,8.038a1.513,1.513,0,0,1,1.2.6,7.461,7.461,0,0,0,5.942,2.971h2.985v6.855a6.936,6.936,0,0,1-4.747,6.587l-.611.2v2.525a16.008,16.008,0,0,0-5.358,1.588V25.255ZM3.572,43.787a14.368,14.368,0,0,1,13.267-14.3,6.929,6.929,0,0,1,4.594,6.522v8.641H14.289V37.878a2.141,2.141,0,0,1,.631-1.524l-1.263-1.263A3.915,3.915,0,0,0,12.5,37.878v6.775a1.788,1.788,0,0,0,1.786,1.786v7.144H3.572Zm37.508,9.8H30.364V50.011a1.788,1.788,0,0,0,1.786-1.786v-3.2A3.915,3.915,0,0,0,31,42.235L29.733,43.5a2.143,2.143,0,0,1,.631,1.524v3.2H23.219V43.156a6.929,6.929,0,0,1,4.594-6.522,14.368,14.368,0,0,1,13.267,14.3Zm.509-8.909a16.224,16.224,0,0,0-5.867-7.11v-3.9a8.712,8.712,0,0,0,5.27-6.869h.088a3.535,3.535,0,0,0,1.786-.5V36.877A24.322,24.322,0,0,1,41.59,44.674Z" transform="translate(0)"/>
        </g>
      </g>
    </g>
  </g>
</svg>
