<svg xmlns="http://www.w3.org/2000/svg" xmlns:xlink="http://www.w3.org/1999/xlink" width="110" height="110" viewBox="0 0 110 110">
  <defs>
    <filter id="Path_982547" x="0" y="0" width="110" height="110" filterUnits="userSpaceOnUse">
      <feOffset dy="3" input="SourceAlpha"/>
      <feGaussianBlur stdDeviation="3" result="blur"/>
      <feFlood flood-opacity="0.161"/>
      <feComposite operator="in" in2="blur"/>
      <feComposite in="SourceGraphic"/>
    </filter>
  </defs>
  <g id="Group_1157554" data-name="Group 1157554" transform="translate(-7206.805 -2276.762)">
    <g id="Group_1157478" data-name="Group 1157478" transform="translate(6090.805 -1017.238)">
      <g id="Group_1155734" data-name="Group 1155734" transform="translate(0 -1390)">
        <g id="Group_1154704" data-name="Group 1154704" transform="translate(0 1466)">
          <g id="Group_1150790" data-name="Group 1150790" transform="translate(3 2320)">
            <g id="Group_1154214" data-name="Group 1154214" transform="translate(79 -5809)">
              <g id="Group_1152583" data-name="Group 1152583" transform="translate(1043 6713)">
                <g id="Group_1146973" data-name="Group 1146973" transform="translate(0 0)">
                  <g id="Group_1146954" data-name="Group 1146954">
                    <g transform="matrix(1, 0, 0, 1, -9, -6)" filter="url(#Path_982547)">
                      <g id="Path_982547-2" data-name="Path 982547" transform="translate(9 6)" fill="#fcf3f0">
                        <path d="M 46 90.49987030029297 C 39.99187850952148 90.49987030029297 34.16426849365234 89.32350921630859 28.67905426025391 87.00345611572266 C 23.38019943237305 84.76224517822266 18.62104034423828 81.55341339111328 14.53374671936035 77.46613311767578 C 10.44646644592285 73.37885284423828 7.237639904022217 68.61969757080078 4.996413230895996 63.32085418701172 C 2.676359891891479 57.83565521240234 1.5 52.008056640625 1.5 45.99993515014648 C 1.5 39.99181365966797 2.676359891891479 34.16421508789062 4.996413230895996 28.67901420593262 C 7.237639904022217 23.38017463684082 10.44646644592285 18.62101554870605 14.53374671936035 14.53373527526855 C 18.62104034423828 10.44645500183105 23.38019943237305 7.23762845993042 28.67905426025391 4.996415138244629 C 34.16426849365234 2.676361799240112 39.99187850952148 1.500001788139343 46 1.500001788139343 C 52.00812149047852 1.500001788139343 57.83573150634766 2.676361799240112 63.32094573974609 4.996415138244629 C 68.61979675292969 7.23762845993042 73.37895965576172 10.44645500183105 77.46625518798828 14.53373527526855 C 81.55353546142578 18.62101554870605 84.76235961914062 23.38017463684082 87.00358581542969 28.67901420593262 C 89.32363891601562 34.16421508789062 90.5 39.99181365966797 90.5 45.99993515014648 C 90.5 52.008056640625 89.32363891601562 57.83565521240234 87.00358581542969 63.32085418701172 C 84.76235961914062 68.61969757080078 81.55353546142578 73.37885284423828 77.46625518798828 77.46613311767578 C 73.37895965576172 81.55341339111328 68.61979675292969 84.76224517822266 63.32094573974609 87.00345611572266 C 57.83573150634766 89.32350921630859 52.00812149047852 90.49987030029297 46 90.49987030029297 Z" stroke="none"/>
                        <path d="M 46 2.999992370605469 C 40.1937141418457 2.999992370605469 34.56269836425781 4.136489868164062 29.26337051391602 6.377906799316406 C 24.14332580566406 8.543502807617188 19.54441070556641 11.64437866210938 15.59439849853516 15.59437561035156 C 11.64440155029297 19.54439544677734 8.54351806640625 24.14329528808594 6.377914428710938 29.26333618164062 C 4.136497497558594 34.56264877319336 3 40.19366455078125 3 45.99993515014648 C 3 51.80620574951172 4.136497497558594 57.43720626831055 6.377914428710938 62.73651885986328 C 8.54351806640625 67.8565673828125 11.64440155029297 72.45545959472656 15.59439849853516 76.40547943115234 C 19.54441070556641 80.35547637939453 24.14332580566406 83.45635223388672 29.26337051391602 85.6219482421875 C 34.56269836425781 87.86336517333984 40.1937141418457 88.99986267089844 46 88.99986267089844 C 51.8062858581543 88.99986267089844 57.43730163574219 87.86336517333984 62.73661422729492 85.6219482421875 C 67.85667419433594 83.45635223388672 72.45557403564453 80.35547637939453 76.40558624267578 76.40547943115234 C 80.35559844970703 72.45545959472656 83.45647430419922 67.8565673828125 85.6220703125 62.73651885986328 C 87.86350250244141 57.43720626831055 89 51.80620574951172 89 45.99993515014648 C 89 40.19366455078125 87.86350250244141 34.56264877319336 85.6220703125 29.26333618164062 C 83.45647430419922 24.14329528808594 80.35559844970703 19.54439544677734 76.40558624267578 15.59437561035156 C 72.45557403564453 11.64437866210938 67.85667419433594 8.543502807617188 62.73661422729492 6.377906799316406 C 57.43730163574219 4.136489868164062 51.8062858581543 2.999992370605469 46 2.999992370605469 M 46 -7.62939453125e-06 C 71.40509033203125 -7.62939453125e-06 92 20.59486389160156 92 45.99993515014648 C 92 71.40499114990234 71.40509033203125 91.99986267089844 46 91.99986267089844 C 20.59490203857422 91.99986267089844 0 71.40499114990234 0 45.99993515014648 C 0 20.59486389160156 20.59490203857422 -7.62939453125e-06 46 -7.62939453125e-06 Z" stroke="none" fill="#e89076"/>
                      </g>
                    </g>
                  </g>
                </g>
              </g>
            </g>
          </g>
        </g>
      </g>
      <g id="configuraciones" transform="translate(1142.399 3317.892)">
        <path id="Path_991038" data-name="Path 991038" d="M247.482,24.609a11.939,11.939,0,0,0-.105-1.58l4.15-3.885-3.219-5.575-5.445,1.654a11.862,11.862,0,0,0-2.731-1.581l-1.289-5.537h-6.438l-1.289,5.537a11.85,11.85,0,0,0-2.73,1.581l-5.446-1.654-3.219,5.575,4.149,3.885a11.921,11.921,0,0,0,0,3.16l-4.149,3.885,3.219,5.574,5.446-1.654a11.835,11.835,0,0,0,2.73,1.581l1.289,5.539h6.438l1.289-5.539a11.848,11.848,0,0,0,2.731-1.581l5.445,1.654,3.219-5.574-4.15-3.885a11.941,11.941,0,0,0,.105-1.58Zm-11.858,5.022a5.022,5.022,0,1,1,5.022-5.022A5.022,5.022,0,0,1,235.624,29.631Zm0,0" transform="translate(-195.174 -6.756)" fill="#ccc"/>
        <path id="Path_991039" data-name="Path 991039" d="M366.328,327.337a6.315,6.315,0,0,0-.057-.847l2.226-2.083-1.726-2.989-2.92.887a6.365,6.365,0,0,0-1.463-.848l-.692-2.969h-3.451l-.691,2.969a6.364,6.364,0,0,0-1.463.848l-2.92-.887-1.726,2.989,2.225,2.083a6.4,6.4,0,0,0,0,1.694l-2.225,2.083,1.726,2.989,2.92-.887a6.348,6.348,0,0,0,1.463.847l.691,2.97H361.7l.692-2.97a6.348,6.348,0,0,0,1.463-.847l2.92.887,1.726-2.989-2.226-2.083A6.314,6.314,0,0,0,366.328,327.337Zm-6.357,2.293a2.293,2.293,0,1,1,2.293-2.293A2.294,2.294,0,0,1,359.971,329.63Zm0,0" transform="translate(-312.181 -282.461)" fill="#ccc"/>
        <path id="Path_991040" data-name="Path 991040" d="M36.022,379.277H41.7a5.272,5.272,0,0,1,5.272,5.272v6.777H17.258v-6.777a5.272,5.272,0,0,1,5.272-5.272h5.68" transform="translate(-15.33 -336.459)" fill="#515f75"/>
        <path id="Path_991041" data-name="Path 991041" d="M92.1,379.277l3.433,12.049h6.129l3.433-12.049" transform="translate(-81.808 -336.459)" fill="#f2f2f2"/>
        <path id="Path_991042" data-name="Path 991042" d="M123.1,318.653v6.77l-3.906,2.2-1.207-.68-2.7-1.521v-6.774h2.7Zm0,0" transform="translate(-102.412 -282.604)" fill="#f9c2af"/>
        <path id="Path_991043" data-name="Path 991043" d="M123.016,456.636l3.1-3.835,3,3.835" transform="translate(-109.272 -401.768)" fill="#f74866"/>
        <path id="Path_991044" data-name="Path 991044" d="M117.992,318.649h-2.7v6.774l2.7,1.521v-3.133c.4.039.8.062,1.212.062a12.225,12.225,0,0,0,3.9-.634v-4.586Zm0,0" transform="translate(-102.412 -282.604)" fill="#ea9e8f"/>
        <path id="Path_991045" data-name="Path 991045" d="M11.284,202.472a3.317,3.317,0,1,1,0-6.593H35.805a3.317,3.317,0,1,1,0,6.593" transform="translate(-6.752 -173.551)" fill="#ea9e8f"/>
        <path id="Path_991046" data-name="Path 991046" d="M65.084,131.309V143.57a12.26,12.26,0,0,1-24.521,0V131.309" transform="translate(-36.031 -116.195)" fill="#f9c2af"/>
        <path id="Path_991047" data-name="Path 991047" d="M52.732,155.829a12.26,12.26,0,0,1-12.174-12.26V131.309h5.52v12.261a18.374,18.374,0,0,0,1.974,8.67c1.2,2.184,2.852,3.548,4.68,3.59Zm0,0" transform="translate(-36.027 -116.194)" fill="#ea9e8f"/>
        <path id="Path_991048" data-name="Path 991048" d="M40.332,28.081a19.412,19.412,0,0,1-11.785.214h0A20.676,20.676,0,0,1,24.2,26.583s-1.119,5.381-5.353,5.381c0,0-2.817-4.983-2.729-9.594a4.258,4.258,0,0,1,5.531-3.985,7.806,7.806,0,0,1,7.8-5.054c.535.033,1.072.076,1.613.125l.311.027.032,0c5.6.526,11.28,1.551,14.614-2.138,0,0,5.512,12.7-5.694,16.734Zm0,0" transform="translate(-14.318 -9.636)" fill="#515f75"/>
        <path id="Path_991049" data-name="Path 991049" d="M29.456,28.981c.535.033,1.072.076,1.613.125-4.945-.209-8.872,10.68-2.523,14.839A20.676,20.676,0,0,1,24.2,42.233s-1.119,5.381-5.354,5.381c0,0-2.817-4.983-2.728-9.594a4.257,4.257,0,0,1,5.531-3.985,7.807,7.807,0,0,1,7.8-5.054Zm0,0" transform="translate(-14.318 -25.286)" fill="#3b485b"/>
        <path id="Path_991050" data-name="Path 991050" d="M126.2,401.664l2.606,3.326,2.693-3.326-2.611-2.687Z" transform="translate(-112.1 -353.957)" fill="#f74866"/>
        <path id="Path_991051" data-name="Path 991051" d="M152.746,30.465l-.034,0,.032,0Zm0,0" transform="translate(-135.65 -26.614)" fill="#f4af9d"/>
        <path id="Path_991052" data-name="Path 991052" d="M362.48,317.233l-1.725-2.989a.85.85,0,0,0-.982-.388l-2.517.764a7.168,7.168,0,0,0-.888-.514l-.6-2.56a.85.85,0,0,0-.827-.657h-3.451a.849.849,0,0,0-.827.657l-.6,2.56a7.168,7.168,0,0,0-.888.514l-2.517-.764a.85.85,0,0,0-.982.388l-1.725,2.989a.85.85,0,0,0,.155,1.045l1.918,1.795c-.012.172-.019.344-.019.515s.007.343.019.515l-1.918,1.8a.849.849,0,0,0-.155,1.045l1.725,2.989a.849.849,0,0,0,.982.388l2.517-.764a7.23,7.23,0,0,0,.888.515l.6,2.56a.849.849,0,0,0,.827.657h3.451a.85.85,0,0,0,.827-.657l.6-2.56a7.23,7.23,0,0,0,.888-.515l2.517.764a.85.85,0,0,0,.982-.388l1.725-2.989a.849.849,0,0,0-.155-1.045l-1.918-1.8c.012-.172.019-.344.019-.515s-.007-.343-.019-.515l1.918-1.8A.849.849,0,0,0,362.48,317.233Zm-3.541,1.887a.849.849,0,0,0-.262.732,5.5,5.5,0,0,1,0,1.47.85.85,0,0,0,.262.733l1.732,1.622-1.051,1.82-2.274-.69a.851.851,0,0,0-.767.141,5.51,5.51,0,0,1-1.268.735.849.849,0,0,0-.5.592l-.538,2.312h-2.1l-.539-2.312a.849.849,0,0,0-.5-.593,5.494,5.494,0,0,1-1.268-.734.85.85,0,0,0-.766-.141l-2.275.69-1.051-1.82,1.733-1.622a.848.848,0,0,0,.261-.733,5.545,5.545,0,0,1,0-1.469.849.849,0,0,0-.261-.732l-1.733-1.622,1.051-1.821,2.275.69a.849.849,0,0,0,.766-.141,5.509,5.509,0,0,1,1.268-.734.849.849,0,0,0,.5-.593l.539-2.312h2.1l.538,2.312a.851.851,0,0,0,.5.593,5.49,5.49,0,0,1,1.268.734.851.851,0,0,0,.767.141l2.274-.69,1.051,1.82Zm0,0" transform="translate(-305.428 -275.713)"/>
        <path id="Path_991053" data-name="Path 991053" d="M182.588,209.723a.85.85,0,0,0-.849.85v1.7a.849.849,0,1,0,1.7,0v-1.7A.85.85,0,0,0,182.588,209.723Zm0,0" transform="translate(-161.434 -185.848)"/>
        <path id="Path_991054" data-name="Path 991054" d="M105.359,212.276v-1.7a.849.849,0,1,0-1.7,0v1.7a.849.849,0,0,0,1.7,0Zm0,0" transform="translate(-92.079 -185.848)"/>
        <path id="Path_991055" data-name="Path 991055" d="M122.042,272.409a3.409,3.409,0,0,1-4.815,0,.849.849,0,0,0-1.2,1.2,5.108,5.108,0,0,0,7.217,0,.849.849,0,0,0-1.2-1.2Zm0,0" transform="translate(-102.843 -241.31)"/>
        <path id="Path_991056" data-name="Path 991056" d="M53.1,19.106c.041-.417.062-.836.062-1.253s-.021-.836-.062-1.253l3.837-3.592a.849.849,0,0,0,.155-1.045L53.87,6.389A.85.85,0,0,0,52.887,6l-1.073.326a.849.849,0,1,0,.494,1.625l.428-.13,2.544,4.407-3.658,3.424a.849.849,0,0,0-.261.733,11.112,11.112,0,0,1,0,2.935.849.849,0,0,0,.261.733l3.658,3.424-2.544,4.407-4.8-1.458a.85.85,0,0,0-.767.141,11,11,0,0,1-2.535,1.468.849.849,0,0,0-.5.593l-1.136,4.881H37.906L36.77,28.627a.851.851,0,0,0-.5-.593,11.014,11.014,0,0,1-2.535-1.468.841.841,0,0,0-.236-.127,3.811,3.811,0,0,0,.088-.815A4.27,4.27,0,0,0,29.9,21.553V17.312a9.9,9.9,0,0,0,3.071-3.942,12.076,12.076,0,0,0,.934-4.361,10.979,10.979,0,0,1,2.36-1.337.849.849,0,0,0,.5-.593L37.905,2.2h5.089l1.136,4.88a.849.849,0,0,0,.5.593A10.982,10.982,0,0,1,47.168,9.14a.849.849,0,0,0,.52.177.838.838,0,0,0,.247-.037l1.534-.466a.849.849,0,0,0-.494-1.626l-1.124.341a12.69,12.69,0,0,0-2.164-1.253L44.5,1.157A.85.85,0,0,0,43.669.5H37.231a.85.85,0,0,0-.827.657l-1.191,5.12A12.7,12.7,0,0,0,33.85,7a19.851,19.851,0,0,0-1.363-5.625.849.849,0,0,0-1.409-.231c-2.717,3-7.34,2.53-12.235,2.029-1.2-.123-2.439-.25-3.654-.324a8.612,8.612,0,0,0-8.36,4.915A5.116,5.116,0,0,0,.953,12.717a21.463,21.463,0,0,0,2.279,8.937A4.22,4.22,0,0,0,0,25.625a4.292,4.292,0,0,0,3.892,4.1A13.151,13.151,0,0,0,12.032,39.6v2.372H7.2A6.129,6.129,0,0,0,1.078,48.09v6.777a.85.85,0,0,0,.85.849H31.644a.85.85,0,0,0,.85-.849V53.621a.849.849,0,0,0-1.7,0v.4H26.576L24.8,52.238l1.953-.488a.85.85,0,0,0,.643-.858L27.11,43.73a4.429,4.429,0,0,1,3.685,4.36v2.133a.849.849,0,1,0,1.7,0V48.09a6.129,6.129,0,0,0-6.122-6.122h-4.83V39.594a13.155,13.155,0,0,0,8.148-9.866,4.659,4.659,0,0,0,2.768-1.373l.591-.179a12.7,12.7,0,0,0,2.164,1.253L36.4,34.551a.85.85,0,0,0,.827.657h6.438a.849.849,0,0,0,.827-.657l1.192-5.122a12.666,12.666,0,0,0,2.164-1.253l5.035,1.529a.85.85,0,0,0,.983-.388l3.219-5.575a.849.849,0,0,0-.155-1.045ZM2.652,12.749A3.418,3.418,0,0,1,6.058,9.4a3.442,3.442,0,0,1,1.024.157A.849.849,0,0,0,8.13,9.045a6.92,6.92,0,0,1,6.955-4.5c1.181.072,2.4.2,3.584.318,4.615.473,9.372.961,12.676-1.65.621,1.954,1.562,6.026.068,9.485a9.209,9.209,0,0,1-5.687,4.951c-7.828,2.82-15.344-1.394-15.418-1.437a.851.851,0,0,0-1.255.562c-.009.045-.939,4.261-4.026,4.674-.664-1.309-2.443-5.163-2.375-8.7ZM1.7,25.625A2.521,2.521,0,0,1,3.682,23.29v4.084c0,.2,0,.393.013.588a2.523,2.523,0,0,1-2-2.338ZM20.916,43.667h1.243l-1.225,4.3L18.179,45.21Zm-9.66,7.884a.849.849,0,0,0-.613-.6L7.9,50.269l.261-6.6H9.648L12.6,54.017H9.4l1.639-1.639a.85.85,0,0,0,.218-.827Zm5.531-5.331,1.5,1.5-1.574,1.945-1.484-1.894ZM20.4,49.835l-.91,3.2-1.628-2.078,1.635-2.02Zm-6.379-.85,1.667,2.128L14.1,53.08l-.925-3.246ZM16.836,52.4l1.27,1.621H15.524Zm-4.2-4.431-1.224-4.3h1.242l2.737,1.542Zm-9.862.125a4.43,4.43,0,0,1,3.685-4.36L6.18,50.893a.85.85,0,0,0,.643.858l1.953.488L7,54.017H2.777Zm20.152,2.864a.849.849,0,0,0-.395,1.424l1.639,1.639h-3.2l2.948-10.35h1.483l.261,6.6Zm-3.086-8.632-3.056,1.722L13.73,42.322v-2.2a13.192,13.192,0,0,0,6.113,0Zm-3.051-3.535A11.411,11.411,0,0,1,5.381,27.374V23.111a5.891,5.891,0,0,0,4.143-3.036,10.461,10.461,0,0,0,.888-1.912,23.893,23.893,0,0,0,4.214,1.479,19.9,19.9,0,0,0,11.676-.4,14.491,14.491,0,0,0,1.9-.841v8.97A11.424,11.424,0,0,1,16.792,38.786ZM29.9,27.374V23.29a2.522,2.522,0,0,1,1.984,2.335,2.524,2.524,0,0,1-2,2.338C29.9,27.768,29.9,27.572,29.9,27.374Zm0,0"/>
        <path id="Path_991057" data-name="Path 991057" d="M315.376,103.273a5.871,5.871,0,1,0,5.872,5.871,5.878,5.878,0,0,0-5.872-5.871Zm0,10.044a4.173,4.173,0,1,1,4.173-4.173A4.177,4.177,0,0,1,315.376,113.317Zm0,0" transform="translate(-274.926 -91.291)"/>
        <path id="Path_991058" data-name="Path 991058" d="M402.772,369.563a3.143,3.143,0,1,0,3.143,3.143A3.146,3.146,0,0,0,402.772,369.563Zm0,4.586a1.444,1.444,0,1,1,1.444-1.444A1.445,1.445,0,0,1,402.772,374.149Zm0,0" transform="translate(-354.981 -327.83)"/>
      </g>
    </g>
  </g>
</svg>
